<?xml version="1.0" standalone="no"?>
<!DOCTYPE svg PUBLIC "-//W3C//DTD SVG 20010904//EN"
 "http://www.w3.org/TR/2001/REC-SVG-20010904/DTD/svg10.dtd">
<svg version="1.0" xmlns="http://www.w3.org/2000/svg"
 width="225.000000pt" height="225.000000pt" viewBox="0 0 225.000000 225.000000"
 preserveAspectRatio="xMidYMid meet">

<g transform="translate(0.000000,225.000000) scale(0.100000,-0.100000)"
fill="#808080" stroke="none">
<path fill="#808080" d="M428 1990 c-52 -15 -98 -52 -125 -98 -26 -43 -27 -55 -34 -221 -9
-192 -22 -260 -70 -359 -33 -67 -86 -115 -140 -127 -28 -6 -29 -9 -29 -60 0
-51 1 -54 29 -60 54 -12 107 -60 140 -127 48 -99 61 -167 70 -359 7 -166 8
-178 34 -222 18 -30 44 -56 75 -74 l47 -28 691 -3 691 -3 54 29 c39 20 62 41
83 76 29 47 30 53 37 219 8 190 29 292 76 379 30 55 86 103 134 113 28 6 29 9
29 59 l0 53 -40 12 c-22 6 -56 28 -75 47 -80 80 -114 200 -123 440 -7 167 -8
172 -37 219 -22 36 -45 57 -84 77 l-53 28 -677 -1 c-372 0 -688 -4 -703 -9z
m902 -435 c32 -18 66 -47 84 -72 75 -108 24 -275 -98 -317 l-36 -12 52 -14
c69 -17 138 -85 157 -153 27 -94 -9 -205 -84 -263 -71 -53 -134 -64 -386 -64
l-229 0 0 466 0 465 243 -3 242 -3 55 -30z"/>
<path d="M940 1333 l0 -138 132 5 c149 6 194 22 218 80 18 43 7 116 -21 146
-32 34 -78 44 -211 44 l-118 0 0 -137z"/>
<path d="M940 930 l0 -150 128 0 c70 0 144 5 165 11 143 39 149 235 8 278 -21
6 -97 11 -170 11 l-131 0 0 -150z"/>
</g>
</svg>
